<svg xmlns="http://www.w3.org/2000/svg"  viewBox="0 0 64 64" width="512px" height="512px"><path d="M 32 3 C 15.984 3 3 15.984 3 32 C 3 48.016 15.984 61 32 61 C 48.016 61 61 48.016 61 32 C 61 15.984 48.016 3 32 3 z M 32 5 C 46.912 5 59 17.088 59 32 C 59 46.912 46.912 59 32 59 C 17.088 59 5 46.912 5 32 C 5 17.088 17.088 5 32 5 z M 30.28125 9 C 25.98925 16.96 33.198594 22.773828 33.558594 23.048828 C 31.116594 19.053828 29.38225 13.524 30.28125 9 z M 27.679688 12.849609 C 27.055688 13.874609 21.094734 24.158781 28.927734 28.175781 C 23.716734 27.964781 22.194219 27.20475 19.699219 24.59375 C 20.778219 31.54975 24.361062 33.716734 27.289062 33.927734 C 24.477062 34.371734 19.805469 34.803312 21.105469 38.820312 C 22.406469 42.826313 25.660281 45.438484 30.988281 43.271484 C 33.979281 42.044484 36.727641 42.604984 38.556641 43.333984 C 37.752641 42.223984 36.442547 40.828906 34.560547 40.003906 C 33.694547 39.358906 31.738031 39.137125 35.332031 37.953125 C 35.332031 37.953125 44.984766 35.669922 42.384766 41.419922 C 41.697766 42.942922 41.179344 43.904812 40.777344 44.507812 C 40.830344 44.538813 40.861328 44.570312 40.861328 44.570312 C 40.861328 44.570312 53.018125 29.591234 38.578125 25.365234 C 25.006125 21.379234 27.362687 13.758609 27.679688 12.849609 z M 20.291016 21.177734 C 20.841016 26.822734 26.75 27.201172 26.75 27.201172 C 24.15 25.997172 21.380016 23.778734 20.291016 21.177734 z M 24.582031 33.607422 C 18.938031 34.146422 20.132812 37.625 20.132812 37.625 C 21.326813 35.014 21.971031 34.685422 24.582031 33.607422 z M 23.208984 49.96875 C 22.856016 49.925203 22.495641 50.090969 22.306641 50.417969 L 21.392578 52 C 21.140578 52.436 21.290563 52.994094 21.726562 53.246094 C 21.869563 53.329094 22.027594 53.369141 22.183594 53.369141 C 22.499594 53.369141 22.805609 53.206109 22.974609 52.912109 L 23.888672 51.330078 C 24.140672 50.895078 23.989734 50.336984 23.552734 50.083984 C 23.443734 50.021234 23.326641 49.983266 23.208984 49.96875 z M 40.787109 49.96875 C 40.669625 49.983391 40.553812 50.022937 40.445312 50.085938 C 40.008313 50.337938 39.858328 50.896031 40.111328 51.332031 L 41.023438 52.912109 C 41.193438 53.205109 41.500406 53.369141 41.816406 53.369141 C 41.971406 53.369141 42.127484 53.331047 42.271484 53.248047 C 42.708484 52.996047 42.858469 52.437953 42.605469 52.001953 L 41.691406 50.419922 C 41.501656 50.092172 41.139562 49.924828 40.787109 49.96875 z M 36.732422 51.748047 C 36.614875 51.731797 36.491141 51.738484 36.369141 51.771484 C 35.882141 51.902484 35.594609 52.402625 35.724609 52.890625 L 36.197266 54.654297 C 36.306266 55.062297 36.675125 55.332031 37.078125 55.332031 C 37.157125 55.332031 37.235453 55.322781 37.314453 55.300781 C 37.801453 55.169781 38.090938 54.669641 37.960938 54.181641 L 37.488281 52.417969 C 37.390031 52.051969 37.085062 51.796797 36.732422 51.748047 z M 27.265625 51.75 C 26.913125 51.798891 26.606062 52.053922 26.507812 52.419922 L 26.035156 54.183594 C 25.904156 54.671594 26.194641 55.171734 26.681641 55.302734 C 26.760641 55.323734 26.839969 55.333984 26.917969 55.333984 C 27.320969 55.333984 27.689828 55.06425 27.798828 54.65625 L 28.271484 52.892578 C 28.402484 52.402578 28.113953 51.902437 27.626953 51.773438 C 27.505203 51.740687 27.383125 51.733703 27.265625 51.75 z M 31.998047 52.347656 C 31.493047 52.347656 31.085938 52.757719 31.085938 53.261719 L 31.085938 55.087891 C 31.085938 55.591891 31.493047 56 31.998047 56 C 32.503047 56 32.912109 55.591891 32.912109 55.087891 L 32.912109 53.261719 C 32.912109 52.757719 32.503047 52.347656 31.998047 52.347656 z"/></svg>